<?xml version="1.0" encoding="UTF-8" standalone="no"?>
<svg xmlns="http://www.w3.org/2000/svg" viewBox="0 0 128 128" width="128" height="128">
  <!-- Background circle -->
  <circle cx="64" cy="64" r="60" fill="#e74c3c" />
  
  <!-- Tomato highlight -->
  <circle cx="45" cy="45" r="15" fill="#f39c12" opacity="0.3" />
  
  <!-- Stem -->
  <path d="M64 5 Q70 12 70 22 Q80 20 75 12 Q80 8 85 15 L80 25 Q64 30 48 25 L43 15 Q48 8 53 12 Q48 20 58 22 Q58 12 64 5" fill="#27ae60" />
  
  <!-- Circuit/AI patterns -->
  <g fill="none" stroke="#fff" stroke-width="2">
    <!-- Horizontal lines -->
    <path d="M30 50 H50 Q55 50 55 55 V70 Q55 75 60 75 H95" />
    <path d="M30 80 H60 Q65 80 65 75 V60 Q65 55 70 55 H95" />
    
    <!-- Vertical lines -->
    <path d="M40 40 V90" />
    <path d="M85 40 V90" />
    
    <!-- Connection points -->
    <circle cx="40" cy="50" r="3" fill="#fff" />
    <circle cx="40" cy="80" r="3" fill="#fff" />
    <circle cx="85" cy="55" r="3" fill="#fff" />
    <circle cx="85" cy="75" r="3" fill="#fff" />
  </g>
  
  <!-- Timer marks -->
  <g stroke="#fff" stroke-width="3" stroke-linecap="round">
    <line x1="64" y1="35" x2="64" y2="45" />
    <line x1="93" y1="64" x2="83" y2="64" />
    <line x1="64" y1="93" x2="64" y2="83" />
    <line x1="35" y1="64" x2="45" y2="64" />
  </g>
</svg> 